<svg width="54" height="114" viewBox="0 0 54 114" fill="none" xmlns="http://www.w3.org/2000/svg">
<path d="M42.3999 113.63C45.3899 113.55 48.3798 113.46 51.3498 113.12C52.1998 113.02 53.1899 112.8 53.5099 112.01C53.5499 111.91 53.5799 111.79 53.5499 111.69C53.5099 111.56 53.3899 111.48 53.2799 111.42C52.5799 111.04 51.7299 111.03 50.9299 111.04C41.8399 111.11 32.7499 111.17 23.6499 111.24C22.5699 111.25 21.4898 111.25 20.4098 111.34C19.5598 111.41 18.1099 111.38 17.4299 111.99C16.8599 112.5 17.0799 113.21 17.6699 113.61C18.4499 114.13 19.7198 113.89 20.5998 113.89C25.2398 113.9 29.8799 113.87 34.5199 113.8C37.1499 113.75 39.7799 113.7 42.3999 113.63Z" fill="url(#paint0_linear)"/>
<path opacity="0.22" d="M42.3999 113.63C45.3899 113.55 48.3798 113.46 51.3498 113.12C52.1998 113.02 53.1899 112.8 53.5099 112.01C53.5499 111.91 53.5799 111.79 53.5499 111.69C53.5099 111.56 53.3899 111.48 53.2799 111.42C52.5799 111.04 51.7299 111.03 50.9299 111.04C41.8399 111.11 32.7499 111.17 23.6499 111.24C22.5699 111.25 21.4898 111.25 20.4098 111.34C19.5598 111.41 18.1099 111.38 17.4299 111.99C16.8599 112.5 17.0799 113.21 17.6699 113.61C18.4499 114.13 19.7198 113.89 20.5998 113.89C25.2398 113.9 29.8799 113.87 34.5199 113.8C37.1499 113.75 39.7799 113.7 42.3999 113.63Z" fill="url(#paint1_linear)"/>
<path d="M26.2699 4.60999C26.9599 5.42999 27.2899 6.50999 27.3699 7.57999C27.4499 8.64999 27.2999 9.72 27.1299 10.78C26.5699 14.16 25.7799 17.5 24.8299 20.79C24.7699 20.99 24.7199 21.19 24.7599 21.39C24.7999 21.59 24.9899 21.77 25.1899 21.74C25.2699 21.73 25.3399 21.68 25.4099 21.64C26.6999 20.79 27.6499 19.48 28.2999 18.08C28.9599 16.68 29.3599 15.17 29.7699 13.68C30.1299 12.39 30.4899 11.09 30.6299 9.75C30.8499 7.51 30.3599 5.17 29.0499 3.34C27.7399 1.51 25.5899 0.25 23.3399 0.25C22.8799 0.25 22.4099 0.310009 22.0199 0.540009C21.6299 0.780009 21.3399 1.22999 21.4099 1.67999C21.5699 2.72999 22.8099 2.58999 23.5599 2.82999C24.5399 3.14999 25.6199 3.82999 26.2699 4.60999Z" fill="#EDDDB2"/>
<path d="M23.95 55.39L22.83 53.42C21.54 53.53 20.2599 53.7 18.9899 53.92C17.9499 54.1 16.8199 54.38 16.1799 55.22C15.5799 56.01 15.5799 57.09 15.6099 58.08C15.7999 65.37 16.1 72.66 16.5 79.94C16.87 86.61 18.3699 91.22 18.9199 97.88C19.1399 100.47 19.3199 100.03 19.7999 104.82C19.8399 105.19 19.8 104.98 19.96 105.19C20.05 105.14 20.15 105.1 20.28 105.09C20.71 105.06 20.64 105.45 21.07 105.42C21.17 105.41 21.25 105.43 21.33 105.45C21.52 104.97 21.6399 104.34 21.6799 103.7C22.5699 90.61 21.12 81.6 23.65 68.7C24.51 64.28 25.54 59.6 23.95 55.39Z" fill="#FFC3B1"/>
<path d="M37.84 90.78C38.99 96.57 39.75 99.16 41.19 104.89C40.39 104.9 40.6 104.58 39.81 104.58C38.45 101.34 38.28 100.94 37.18 97.61C36.4 95.24 35.49 92.93 34.58 90.61C32.03 84.13 28.19 78.14 25.64 71.66C24.51 68.79 23.37 65.91 21.87 63.22C20.25 60.34 18.21 56.19 22.08 54.15C24.26 53 27.46 52.96 29.32 54.7C31.44 56.68 31.8 60.22 32.33 62.88C33.2 67.27 34.07 71.66 34.94 76.05C35.89 80.95 36.86 85.87 37.84 90.78Z" fill="#FFC3B1"/>
<path d="M40.96 104.23C41.13 104.25 41.31 104.28 41.44 104.4C41.54 104.49 41.59 104.63 41.64 104.75C42.02 105.8 42.36 106.86 42.66 107.94C42.81 108.46 42.95 109 43.22 109.47C43.78 110.46 44.84 111.08 45.94 111.37C46.81 111.59 47.71 111.63 48.6 111.63C48.88 111.63 49.22 111.56 49.4 111.82C49.59 112.1 49.46 112.63 49.28 112.88C48.98 113.31 48.35 113.33 47.83 113.29C46.34 113.18 44.86 112.95 43.38 112.72C43.03 112.67 42.67 112.6 42.4 112.39C42.26 112.28 42.15 112.13 42.05 111.98C41.66 111.43 41.28 110.86 40.92 110.29C40.91 111.04 40.86 111.8 40.76 112.54C40.61 112.51 40.46 112.54 40.33 112.62C40.07 109.83 39.71 107.05 39.24 104.28C39.8 104.18 40.38 104.17 40.96 104.23Z" fill="#662E2A"/>
<path d="M18.5999 109.62C18.7899 109.13 18.8899 108.62 18.9899 108.11C19.2699 106.75 19.5399 105.38 19.8199 104.02C20.2699 104.07 20.7099 104.12 21.1599 104.18C21.2399 104.19 21.3299 104.2 21.3999 104.24C21.5799 104.34 21.6099 104.58 21.6299 104.78C21.7999 107.07 21.8599 109.36 21.8099 111.65C21.7999 111.96 21.7899 112.28 21.6399 112.54C21.5399 112.71 21.3499 112.85 21.1499 112.88C20.2199 113.34 19.0499 113.31 18.1599 112.75C18.0699 112.69 17.9799 112.63 17.9199 112.55C17.8499 112.46 17.8199 112.34 17.8099 112.22C17.6699 111.31 18.2699 110.47 18.5999 109.62Z" fill="#662E2A"/>
<path d="M33.0699 21.42C33.6199 22.39 33.8599 23.51 34.3199 24.53C34.9599 25.96 36 27.17 36.71 28.56C37.9 30.88 38.1899 33.7 39.9399 35.62C40.5599 36.3 41.33 36.83 41.84 37.59C42.35 38.35 42.5099 39.47 41.8599 40.12C41.2499 40.73 40.1799 40.62 39.4899 40.12C38.7999 39.62 38.3699 38.82 37.9699 38.06C37.0499 36.28 36.1299 34.5 35.1999 32.73C34.5899 31.55 33.9599 30.35 33.0499 29.38C32.7099 29.01 32.32 28.68 32.0199 28.29C31.5499 27.68 31.2899 26.93 30.9099 26.27C29.6099 24.01 27.2899 22.35 28.3499 19.41C29.4099 16.42 32.2899 20.02 33.0699 21.42Z" fill="#FFC3B1"/>
<path d="M46.0799 21.84C43.9499 20.46 41.4299 19.83 38.9599 19.22C38.4899 19.11 37.9999 18.99 37.5399 19.12L36.3199 20.32L31.8099 29.52C31.1999 30.74 30.8399 32.07 30.4799 33.4C29.7999 35.9 29.1299 38.41 28.4499 40.91C28.3799 41.17 28.3199 41.46 28.4699 41.68C28.5799 41.84 28.7799 41.91 28.9599 41.97C31.6499 42.87 34.3399 43.76 37.0299 44.66C37.2399 44.73 37.4699 44.8 37.6699 44.7C37.8099 44.63 37.8999 44.49 37.9799 44.35C41.3999 38.69 44.5999 32.89 47.5599 26.97C47.8799 26.32 48.2099 25.64 48.2099 24.91C48.2099 23.6 47.1699 22.55 46.0799 21.84Z" fill="#736357"/>
<path d="M27.12 17.49C27.51 17.31 27.9599 17.16 28.4099 17.23C29.0099 17.32 29.38 17.76 29.63 18.17C30.99 20.41 31.73 21.8 31.09 24.22C30.45 26.64 31.61 28.67 31 31.09C30.56 32.81 30.39 34.56 29.78 36.25C29.72 36.42 29.65 36.59 29.48 36.71C29.3 36.83 29.04 36.87 28.8 36.9C25.9 37.24 22.94 37.35 20.01 37.22C19.6 37.2 19.16 37.17 18.86 36.96C18.57 36.77 18.47 36.46 18.39 36.18C17.15 31.79 15.8999 27.4 14.6599 23C14.4299 22.2 14.21 21.38 14.36 20.58C14.51 19.77 15.11 18.96 16.11 18.64C17.37 18.23 18.8 18.68 20.15 18.9C24.84 19.66 23.58 19.09 27.12 17.49Z" fill="#FF8FA0"/>
<path d="M19.3899 3.72001C18.1699 5.14001 17.8199 7.02002 17.7499 8.82002C17.6899 10.24 17.7899 11.67 18.0299 13.08C18.2699 14.47 18.6899 15.9 19.6699 16.99C20.6499 18.09 22.3099 18.78 23.7899 18.35C25.4799 17.86 26.3499 16.2 26.9599 14.68C27.8399 12.49 28.6099 10.17 28.3199 7.85002C28.0399 5.65002 26.6499 4.03 24.8499 2.65C23.1499 1.34 20.6399 2.26001 19.3899 3.72001Z" fill="#FFC3B1"/>
<path d="M19.65 6.89001C18.81 8.86001 18.77 11.07 18.39 13.18C17.44 18.51 14.3699 23.24 12.9899 28.47C11.3599 34.62 12.14 41.16 13.45 47.39C12.64 47.91 11.5799 47.56 10.6799 47.21C9.25994 46.64 7.84994 46.07 6.42994 45.51C5.24994 45.04 4.05997 44.56 3.07997 43.75C0.939966 41.99 0.239924 38.94 0.599924 36.19C0.969924 33.45 2.23995 30.92 3.49995 28.45C7.22995 21.12 10.96 13.79 14.7 6.45999C15.58 4.73999 16.4899 2.97001 17.9999 1.76001C19.4999 0.550005 21.7699 0.0600099 23.3699 1.14001C25.3799 2.49001 24.4299 2.96 22.9699 3.66C21.4699 4.38 20.33 5.29001 19.65 6.89001Z" fill="#EDDDB2"/>
<path d="M39.38 40.17C39.53 40.68 39.76 41.22 40.23 41.46C40.9 41.82 41.74 41.4 42.27 40.85C43.5 39.59 43.6399 37.06 41.7199 36.27C39.3699 35.31 38.96 38.75 39.38 40.17Z" fill="#FFC3B1"/>
<path d="M29.6599 35.23C29.9599 35.2 30.31 35.19 30.51 35.42C30.64 35.57 30.67 35.79 30.69 35.99C31 39.39 30.87 42.82 30.89 46.24C30.93 53.62 31.71 61.07 34.2 68.02C34.47 68.79 34.77 69.64 34.45 70.38C34.17 71.04 33.49 71.41 32.84 71.73C27.03 74.53 20.41 75.65 13.99 74.89C12.76 74.75 11.53 74.53 10.38 74.09C9.89997 73.91 9.41997 73.66 9.12997 73.24C8.90997 72.92 8.82998 72.52 8.76998 72.13C8.48998 70.02 8.94996 67.89 9.42996 65.81C11.61 56.43 14.13 47.14 16.64 37.85C16.85 37.06 17.0699 35.29 17.9099 34.98C18.7399 34.67 20.62 35.26 21.53 35.32C24.25 35.48 26.9599 35.45 29.6599 35.23Z" fill="#F2F2F2"/>
<path d="M20.1099 12.5C20.3699 12.85 20.47 13.29 20.59 13.71C20.78 14.37 21.0199 15.02 21.3099 15.65C21.6799 16.43 22.13 17.3 21.84 18.11C21.7 18.5 21.3899 18.82 21.0599 19.07C20.7199 19.33 20.31 19.56 19.89 19.52C19.22 19.46 18.7799 18.82 18.4399 18.25C17.9799 17.47 17.5199 16.68 17.0599 15.89C16.4399 14.83 16.02 13.46 17.08 12.5C17.89 11.77 19.4099 11.54 20.1099 12.5Z" fill="#F2F2F2"/>
<path d="M18.1299 15.67C18.2699 15.46 18.5399 15.38 18.7899 15.33C19.1099 15.27 19.4699 15.24 19.7399 15.42C19.9399 15.55 20.0599 15.76 20.1699 15.97C20.6999 16.96 21.1799 17.98 21.5899 19.03C21.8199 19.61 22.0199 20.23 21.8699 20.83C21.7099 21.43 21.0399 21.93 20.4699 21.67C20.2699 21.58 20.1199 21.42 19.9799 21.26C19.2699 20.48 18.2099 19.63 18.0499 18.53C17.9599 17.9 17.8199 16.16 18.1299 15.67Z" fill="#FFC3B1"/>
<path d="M19.61 24.19C18.73 27.05 17.65 29.84 16.37 32.55C15.68 34 14.93 35.46 14.71 37.06C14.67 37.34 14.65 37.63 14.75 37.89C14.93 38.38 15.46 38.64 15.94 38.84C16.44 39.06 17 39.27 17.53 39.13C18.23 38.93 18.6 38.18 18.84 37.5C19.47 35.69 19.8 33.79 20.12 31.89C20.79 27.89 21.4 23.88 21.97 19.86C22.02 19.52 20.86 19.95 20.77 20.02C20.41 20.28 20.25 20.69 20.15 21.11C19.91 22.11 19.93 23.15 19.61 24.19Z" fill="#FFC3B1"/>
<path d="M18.7299 35.16C18.7499 35.57 18.77 36 18.63 36.39C18.23 37.49 16.8299 37.78 15.6599 37.89C15.4599 37.91 15.25 37.92 15.09 37.81C14.91 37.68 14.86 37.43 14.84 37.2C14.48 34.27 14.13 31.33 13.77 28.4C13.48 26 12.1199 20.12 15.7199 19.35C17.6899 18.93 17.91 20.7 18 22.14C18.12 24.2 18.24 26.27 18.36 28.33C18.48 30.6 18.6099 32.88 18.7299 35.16Z" fill="#FFC3B1"/>
<defs>
<linearGradient id="paint0_linear" x1="17.0988" y1="112.489" x2="53.57" y2="112.489" gradientUnits="userSpaceOnUse">
<stop stop-color="white"/>
<stop offset="1"/>
</linearGradient>
<linearGradient id="paint1_linear" x1="17.0988" y1="112.489" x2="53.57" y2="112.489" gradientUnits="userSpaceOnUse">
<stop/>
<stop offset="1"/>
</linearGradient>
</defs>
</svg>
