<svg width="35" height="109" viewBox="0 0 35 109" fill="none" xmlns="http://www.w3.org/2000/svg">
<path d="M26.96 107.96C24.85 108.03 22.74 108 20.63 107.97C14.75 107.88 8.85997 107.79 2.97997 107.71C2.06997 107.7 0.879993 107.51 0.819993 106.87C0.759993 106.29 1.69997 105.92 2.47997 105.74C5.29997 105.11 8.25999 104.99 11.19 104.88C15.5 104.72 19.8 104.58 24.11 104.47C26.8 104.4 29.56 104.35 32.07 104.99C33.43 105.34 35.45 106.82 33.27 107.55C32.67 107.75 31.45 107.66 30.8 107.72C29.53 107.82 28.25 107.91 26.96 107.96Z" fill="url(#paint0_linear)"/>
<path opacity="0.22" d="M26.96 107.96C24.85 108.03 22.74 108 20.63 107.97C14.75 107.88 8.85997 107.79 2.97997 107.71C2.06997 107.7 0.879993 107.51 0.819993 106.87C0.759993 106.29 1.69997 105.92 2.47997 105.74C5.29997 105.11 8.25999 104.99 11.19 104.88C15.5 104.72 19.8 104.58 24.11 104.47C26.8 104.4 29.56 104.35 32.07 104.99C33.43 105.34 35.45 106.82 33.27 107.55C32.67 107.75 31.45 107.66 30.8 107.72C29.53 107.82 28.25 107.91 26.96 107.96Z" fill="url(#paint1_linear)"/>
<path d="M13.0499 54.92C18.6699 55.06 24.5499 54.02 30.0499 55.17C30.0599 70.73 28.8499 87.98 26.9799 103.43C25.2199 103.43 23.47 103.42 21.71 103.42C20.29 95.02 20.7199 87.07 20.3799 78.65C19.7299 82.57 18.5099 84.81 17.2199 89.69C16.6199 91.94 15.9199 94.15 15.4199 96.43C15.1599 97.59 14.88 98.75 14.58 99.9C14.31 100.89 13.8299 101.92 13.8699 102.95C12.1499 103.16 10.39 102.62 8.70996 102.31C8.70996 100.23 8.70991 98.14 8.71991 96.06C8.71991 93.33 8.90993 90.7 9.23993 87.99C9.54993 85.45 10.0399 82.86 10.0399 80.29C10.2199 78.6 10.4099 76.92 10.5399 75.23C10.8399 71.42 10.8799 67.59 11.1099 63.77C11.2199 61.87 11.38 59.97 11.65 58.08C11.78 57.16 11.9199 56.24 12.1099 55.34C12.1799 55.01 12.1599 54.53 12.5499 54.5C12.6199 54.49 12.8099 54.91 13.0499 54.92Z" fill="#1A1A1A"/>
<path d="M16.6599 20.74C13.1199 20.06 12.2699 22.73 12.2399 25.88C12.1899 31.57 11.9799 37.26 11.6199 42.94C11.4299 45.88 11.2 48.83 10.94 51.76C10.66 54.83 10.46 55.44 13.76 55.71C19.65 56.2 25.62 56.21 31.52 55.74C32.19 55.69 32.1999 46.41 32.2199 45.63C32.3699 40.73 31.68 35.77 29.95 31.07C28.95 28.35 27.3199 25.75 24.8599 23.82C22.5099 21.98 19.7099 21.33 16.6599 20.74Z" fill="#E8E8E8"/>
<path d="M7.65001 18.29C8.34001 17.99 9.00996 17.69 9.65996 17.31C9.92996 17.15 10.13 17.54 9.90001 17.72C9.30001 18.16 8.7 18.62 8.07 19.01C7.61 19.3 7.17001 18.5 7.65001 18.29Z" fill="#666666"/>
<path d="M9.60004 11.52C9.81004 11.77 9.94008 12.07 10.0801 12.36C10.2301 12.67 10.4501 13 10.5001 13.34C10.5201 13.51 10.35 13.73 10.17 13.59C9.90005 13.39 9.73004 13.09 9.54004 12.82C9.33004 12.52 9.09008 12.23 8.96008 11.89C8.82008 11.54 9.36004 11.24 9.60004 11.52Z" fill="#666666"/>
<path d="M7.15004 14.27C7.56004 14.31 7.94003 14.43 8.33003 14.55C8.68003 14.66 9.03002 14.74 9.32002 14.97C9.45002 15.08 9.36998 15.31 9.21998 15.35C8.90998 15.42 8.59999 15.35 8.28999 15.3C7.87999 15.23 7.44 15.19 7.05 15.04C6.66 14.9 6.67004 14.23 7.15004 14.27Z" fill="#666666"/>
<path d="M15.85 19.76C15.25 18.92 14.85 17.8 14.77 16.46C14.62 13.99 14.75 11.43 15.77 9.16C16.94 6.56 19.92 3.97 23.01 4.64C26.63 5.42 26.38 10.09 26.13 13.19C25.93 15.65 25.04 18.15 23.22 19.82C20.49 22.3 17.44 21.97 15.85 19.76Z" fill="#E8DBCE"/>
<path d="M16.86 12.93C16.51 14.58 15.85 16.17 14.93 17.59C14.75 17.92 14.28 17.49 14.18 17.13C13.41 14.29 13.03 9.1 13.38 6.17C13.74 3.25 15.01 2.55001 17.66 1.27001C19.59 0.330006 21.97 0.380005 23.87 1.39C25.77 2.4 27.15 4.32 27.5 6.44C27.53 6.64 27.55 6.86 27.44 7.03C27.27 7.3 26.87 7.3 26.55 7.26C24.73 7.03 22.88 6.57 21.08 6.96C19.29 7.35 17.57 8.95001 17.86 10.77C17.15 10.64 16.38 10.51 15.73 10.82C15.07 11.12 14.66 12.04 15.12 12.59C15.63 12.92 16.27 13.04 16.86 12.93Z" fill="#E0C68E"/>
<path d="M22.01 102.8C23.46 102.69 24.93 102.75 26.36 102.99C27.47 103.82 28.68 104.5 29.96 105.02C30.33 105.17 30.72 105.32 31 105.61C31.27 105.9 31.38 106.39 31.13 106.7C30.91 106.97 30.51 107 30.16 107C27.48 107.02 24.79 106.79 22.15 106.31C21.99 106.28 21.82 106.25 21.71 106.13C21.62 106.04 21.58 105.91 21.54 105.79C21.27 104.78 21.45 103.67 22.01 102.8Z" fill="#537080"/>
<path d="M9.41003 101.97C10.86 102.14 12.2801 102.49 13.6401 103C14.5601 104.03 15.6201 104.93 16.7801 105.69C17.1201 105.91 17.47 106.13 17.68 106.47C17.89 106.81 17.9001 107.31 17.5901 107.57C17.3201 107.79 16.9201 107.74 16.5801 107.68C13.9401 107.18 11.35 106.43 8.86004 105.45C8.71004 105.39 8.55008 105.32 8.46008 105.19C8.39008 105.08 8.37004 104.95 8.36004 104.82C8.30004 103.78 8.69003 102.72 9.41003 101.97Z" fill="#537080"/>
<path d="M25.2299 22.88C25.8099 22.62 26.45 22.81 26.84 23.29C27.35 23.92 27.2099 24.62 27.1699 25.37C27.1599 25.5 27.12 25.6 27.06 25.67C27.13 25.71 27.19 25.76 27.24 25.84C29.2 28.8 30.6699 32.03 31.4799 35.5C32.2399 38.75 32.46 40.39 31.84 43.53C31.84 44.05 31.05 45.77 31.01 46.29C30.97 46.93 30.23 48.64 30.05 47.98C29.05 44.31 29.24 38.84 29.02 35.05C28.61 32.49 28.17 29.96 27.08 27.61C26.83 27.19 26.57 26.78 26.3 26.38C26.2 26.25 26.1899 26.12 26.2199 26C26.0699 25.94 25.96 25.81 25.95 25.65C25.42 25.37 24.73 24.95 24.55 24.36C24.38 23.77 24.6799 23.13 25.2299 22.88Z" fill="#303D5A"/>
<path d="M14.3401 16.04C14.3701 15.67 14.69 15.4 14.98 15.18C16.52 14 18.16 12.95 19.87 12.03C20.2 11.86 20.6001 11.95 20.8201 12.24C23.3001 15.53 25.3001 18.69 27.8901 21.87C28.1301 22.17 28.06 22.62 27.73 22.82C25.98 23.89 24.1401 25.06 22.3201 25.95C21.9701 26.12 21.5901 26.29 21.2101 26.21C20.7901 26.12 20.5101 25.74 20.2701 25.39C18.3301 22.59 16.4501 19.75 14.6301 16.87C14.4801 16.62 14.3201 16.34 14.3401 16.04Z" fill="#666666"/>
<path d="M26.51 38.38C25.55 36.59 25.02 34.65 24.52 32.71C23.72 29.59 23.01 26.45 22.38 23.29C22.28 22.76 22.18 22.21 22.36 21.69C22.55 21.17 23.12 20.69 23.75 20.72C26.95 26.14 28.9401 32.09 29.5901 38.2C29.6401 38.65 29.66 39.15 29.3 39.49C28.88 39.9 28.1 39.89 27.58 39.61C27.07 39.34 26.77 38.86 26.51 38.38Z" fill="#E8DBCE"/>
<path d="M27.0901 37.12C25.6901 36.08 24.1801 35.18 22.5901 34.44C22.5001 34.4 22.3901 34.35 22.2901 34.39C22.2001 34.43 22.1501 34.52 22.1101 34.61C21.8001 35.31 21.5701 36.04 21.4001 36.78C21.2901 37.3 21.2401 37.92 21.6201 38.3C21.8301 38.5 22.1201 38.59 22.3901 38.69C23.7201 39.19 24.7701 40.26 26.1201 40.71C27.1201 41.05 28.2101 41.01 29.2701 40.97C29.3701 40.97 29.4801 40.96 29.5401 40.88C29.5801 40.83 29.5801 40.76 29.5901 40.7C29.6301 40.19 29.6601 39.65 29.4301 39.18C29.3101 38.94 29.1401 38.74 28.9601 38.55C28.1101 37.62 28.0901 37.87 27.0901 37.12Z" fill="#E8DBCE"/>
<defs>
<linearGradient id="paint0_linear" x1="34.1925" y1="105.692" x2="0.846322" y2="107.284" gradientUnits="userSpaceOnUse">
<stop stop-color="white"/>
<stop offset="1"/>
</linearGradient>
<linearGradient id="paint1_linear" x1="34.1925" y1="105.692" x2="0.846322" y2="107.284" gradientUnits="userSpaceOnUse">
<stop/>
<stop offset="1"/>
</linearGradient>
</defs>
</svg>
